<?xml version="1.0" standalone="no"?>
<!DOCTYPE svg PUBLIC "-//W3C//DTD SVG 20010904//EN"
 "http://www.w3.org/TR/2001/REC-SVG-20010904/DTD/svg10.dtd">
<svg version="1.0" xmlns="http://www.w3.org/2000/svg"
 width="512.000000pt" height="512.000000pt" viewBox="0 0 512.000000 512.000000"
 preserveAspectRatio="xMidYMid meet">
<metadata>
Created by potrace 1.11, written by Peter Selinger 2001-2013
</metadata>
<g transform="translate(0.000000,512.000000) scale(0.100000,-0.100000)"
fill="#000000" stroke="none">
<path d="M1731 5032 c-16 -115 -47 -180 -99 -210 -21 -12 -83 -29 -137 -39
l-98 -17 97 -17 c170 -30 198 -57 232 -227 l20 -103 17 97 c30 167 66 203 235
233 l97 17 -75 13 c-112 18 -146 29 -181 58 -41 35 -58 76 -78 192 l-17 94
-13 -91z"/>
<path d="M2496 4989 c-3 -8 -13 -59 -22 -114 -47 -287 -97 -332 -421 -385 -40
-7 -73 -15 -73 -19 0 -5 48 -16 108 -26 171 -28 229 -49 282 -104 54 -55 71
-103 104 -283 12 -67 25 -117 29 -112 3 6 13 55 21 110 45 283 98 337 383 386
68 12 120 25 116 29 -5 4 -53 15 -108 23 -283 45 -339 99 -386 380 -22 126
-25 138 -33 115z"/>
<path d="M1053 3904 c-109 -125 -198 -232 -197 -238 1 -6 79 -121 174 -256 95
-135 181 -257 192 -273 15 -21 16 -28 6 -31 -158 -46 -273 -89 -367 -137 -435
-221 -749 -647 -832 -1128 -22 -132 -26 -357 -9 -485 96 -688 648 -1240 1336
-1335 102 -15 336 -15 438 0 333 46 651 205 891 444 437 438 576 1087 356
1670 -22 59 -43 110 -46 113 -10 10 -79 -53 -135 -124 -32 -40 -76 -109 -98
-153 l-40 -79 16 -69 c12 -49 16 -118 16 -248 0 -198 -13 -277 -73 -430 -30
-77 -109 -225 -121 -225 -10 0 -87 139 -116 210 -118 290 -110 653 21 936 110
239 323 457 563 578 197 99 475 139 707 101 438 -71 803 -386 938 -810 45
-139 52 -191 51 -370 -1 -187 -18 -277 -83 -439 -115 -287 -360 -532 -647
-647 -162 -65 -252 -82 -439 -83 -180 -1 -248 9 -394 59 l-68 23 -52 -68 c-29
-38 -88 -106 -131 -151 -44 -45 -79 -84 -77 -85 11 -11 190 -81 267 -104 295
-87 640 -82 934 14 552 181 959 653 1057 1226 22 131 26 356 9 484 -57 407
-282 787 -611 1036 -363 273 -831 375 -1277 279 -192 -42 -381 -124 -558 -245
l-97 -65 -31 23 c-134 100 -310 193 -459 243 -57 19 -112 35 -120 35 -9 0 -18
4 -21 9 -5 7 96 154 340 498 l44 62 -205 230 -206 231 -324 0 -325 0 -197
-226z m713 -1159 c148 -26 288 -77 414 -151 124 -73 119 -59 56 -154 -348
-519 -346 -1216 4 -1735 59 -88 65 -74 -61 -149 -92 -55 -202 -100 -328 -134
-86 -23 -114 -25 -276 -25 -162 0 -190 2 -276 25 -188 51 -325 118 -461 226
-283 226 -448 567 -448 927 0 318 121 609 349 836 179 180 395 292 641 334
105 18 281 18 386 0z"/>
</g>
</svg>
